<svg width="200" height="37" viewBox="0 0 200 37" fill="none" xmlns="http://www.w3.org/2000/svg">
<path d="M5.544 34H11.592L17.016 6.064H27.48L28.584 0.543998H1.608L0.503998 6.064H10.968L5.544 34Z" fill="#00FFD1"/>
<path d="M53.838 8.512C53.838 3.712 50.814 0.543998 43.998 0.543998H33.198L26.67 34H32.622L35.31 20.128H37.662H40.062L45.39 34H51.774L45.63 19.504C50.862 18.064 53.838 14.416 53.838 8.512ZM36.414 14.608L38.046 6.064H42.558C45.966 6.064 47.79 6.976 47.79 9.28C47.79 13.408 44.91 14.608 40.638 14.608H36.414Z" fill="#00FFD1"/>
<path d="M56.5762 34H62.5762L69.1042 0.543998H63.1042L56.5762 34Z" fill="#00FFD1"/>
<path d="M91.9898 34H98.2298L91.4137 0.543998H86.9017L66.9818 34H73.9898L78.1657 26.704H90.6458L91.9898 34ZM81.1418 21.568L87.5738 10.336L89.6858 21.568H81.1418Z" fill="#00FFD1"/>
<path d="M119.158 20.752H126.502C125.206 26.032 120.886 28.768 115.606 28.768C109.846 28.768 107.494 25.552 107.494 20.848C107.494 12.688 112.486 5.728 120.598 5.728C125.446 5.728 127.894 7.984 128.566 11.536L134.326 9.76C133.222 4.192 129.094 0.0159988 121.174 0.0159988C109.606 0.0159988 101.542 9.52 101.542 21.232C101.542 28.624 105.622 34.48 115.03 34.48C119.35 34.48 123.238 32.656 125.686 29.488L125.254 34H130.006L133.51 15.904H120.07L119.158 20.752Z" fill="#00FFD1"/>
<path d="M137.201 34H159.473L160.529 28.48H144.257L146.033 19.552H161.153L162.209 14.032H147.089L148.625 6.064H164.897L166.001 0.543998H143.729L137.201 34Z" fill="#00FFD1"/>
<path d="M166.451 34H176.243C189.107 34 197.171 25.408 197.171 13.216C197.171 5.104 192.179 0.543998 182.531 0.543998H172.979L166.451 34ZM173.507 28.48L177.875 6.064H181.619C188.387 6.064 191.267 8.08 191.267 13.12C191.267 22 186.131 28.48 176.483 28.48H173.507Z" fill="#00FFD1"/>
<path d="M7.544 36H13.592L19.016 8.064H29.48L30.584 2.544H3.608L2.504 8.064H12.968L7.544 36Z" fill="#FF5353"/>
<path d="M55.838 10.512C55.838 5.712 52.814 2.544 45.998 2.544H35.198L28.67 36H34.622L37.31 22.128H39.662H42.062L47.39 36H53.774L47.63 21.504C52.862 20.064 55.838 16.416 55.838 10.512ZM38.414 16.608L40.046 8.064H44.558C47.966 8.064 49.79 8.976 49.79 11.28C49.79 15.408 46.91 16.608 42.638 16.608H38.414Z" fill="#FF5353"/>
<path d="M58.5762 36H64.5762L71.1042 2.544H65.1042L58.5762 36Z" fill="#FF5353"/>
<path d="M93.9898 36H100.23L93.4137 2.544H88.9017L68.9818 36H75.9898L80.1657 28.704H92.6458L93.9898 36ZM83.1418 23.568L89.5738 12.336L91.6858 23.568H83.1418Z" fill="#FF5353"/>
<path d="M121.158 22.752H128.502C127.206 28.032 122.886 30.768 117.606 30.768C111.846 30.768 109.494 27.552 109.494 22.848C109.494 14.688 114.486 7.728 122.598 7.728C127.446 7.728 129.894 9.984 130.566 13.536L136.326 11.76C135.222 6.192 131.094 2.016 123.174 2.016C111.606 2.016 103.542 11.52 103.542 23.232C103.542 30.624 107.622 36.48 117.03 36.48C121.35 36.48 125.238 34.656 127.686 31.488L127.254 36H132.006L135.51 17.904H122.07L121.158 22.752Z" fill="#FF5353"/>
<path d="M139.201 36H161.473L162.529 30.48H146.257L148.033 21.552H163.153L164.209 16.032H149.089L150.625 8.064H166.897L168.001 2.544H145.729L139.201 36Z" fill="#FF5353"/>
<path d="M168.451 36H178.243C191.107 36 199.171 27.408 199.171 15.216C199.171 7.104 194.179 2.544 184.531 2.544H174.979L168.451 36ZM175.507 30.48L179.875 8.064H183.619C190.387 8.064 193.267 10.08 193.267 15.12C193.267 24 188.131 30.48 178.483 30.48H175.507Z" fill="#FF5353"/>
</svg>
